HIERARCHY
ROOT Root
{
  OFFSET 0.0 0.0 0.0
  CHANNELS 6 Xposition Yposition Zposition Zrotation Yrotation Xrotation
  JOINT Hips
  {
    OFFSET 0.0 100.0 0.0
    CHANNELS 6 Xposition Yposition Zposition Zrotation Yrotation Xrotation
    JOINT Spine1
    {
      OFFSET 5.003913 -0.037094 -0.013727
      CHANNELS 3 Zrotation Yrotation Xrotation
      JOINT Spine2
      {
        OFFSET 7.125363 -1e-06 0.0
        CHANNELS 3 Zrotation Yrotation Xrotation
        JOINT Chest
        {
          OFFSET 7.594027 1e-06 0.0
          CHANNELS 3 Zrotation Yrotation Xrotation
          JOINT Neck1
          {
            OFFSET 26.313086 -0.460272 -0.181672
            CHANNELS 3 Zrotation Yrotation Xrotation
            JOINT Neck2
            {
              OFFSET 8.045911 0.0 0.0
              CHANNELS 3 Zrotation Yrotation Xrotation
              JOINT Head
              {
                OFFSET 6.432774 0.0 0.0
                CHANNELS 3 Zrotation Yrotation Xrotation
                JOINT HeadEnd
                {
                  OFFSET 16.169773 0.06451 0.00362
                  CHANNELS 3 Zrotation Yrotation Xrotation
                }
                JOINT Jaw
                {
                  OFFSET 0.108741 3.12938 0.002639
                  CHANNELS 3 Zrotation Yrotation Xrotation
                }
                JOINT LeftEye
                {
                  OFFSET 4.45173 8.166359 3.206392
                  CHANNELS 3 Zrotation Yrotation Xrotation
                }
                JOINT RightEye
                {
                  OFFSET 4.436895 8.135758 -3.222429
                  CHANNELS 3 Zrotation Yrotation Xrotation
                }
              }
            }
          }
          JOINT LeftShoulder
          {
            OFFSET 23.218927 5.195579 1.621656
            CHANNELS 3 Zrotation Yrotation Xrotation
            JOINT LeftArm
            {
              OFFSET 15.902118 2e-06 -2e-06
              CHANNELS 3 Zrotation Yrotation Xrotation
              JOINT LeftForeArm
              {
                OFFSET 28.739307 0.0 -1e-06
                CHANNELS 3 Zrotation Yrotation Xrotation
                JOINT LeftHand
                {
                  OFFSET 27.093981 -4e-06 0.0
                  CHANNELS 3 Zrotation Yrotation Xrotation
                  JOINT LeftHandThumb1
                  {
                    OFFSET 2.276781 3.380274 0.83384
                    CHANNELS 3 Zrotation Yrotation Xrotation
                    JOINT LeftHandThumb2
                    {
                      OFFSET 4.705309 -1e-06 -1e-06
                      CHANNELS 3 Zrotation Yrotation Xrotation
                      JOINT LeftHandThumb3
                      {
                        OFFSET 2.798515 0.0 3e-06
                        CHANNELS 3 Zrotation Yrotation Xrotation
                        JOINT LeftHandThumbEnd
                        {
                          OFFSET 3.180793 4e-06 -4e-06
                          CHANNELS 3 Zrotation Yrotation Xrotation
                        }
                      }
                    }
                  }
                  JOINT LeftHandIndex1
                  {
                    OFFSET 3.247786 2.352677 0.137192
                    CHANNELS 3 Zrotation Yrotation Xrotation
                    JOINT LeftHandIndex2
                    {
                      OFFSET 6.367095 1e-06 0.0
                      CHANNELS 3 Zrotation Yrotation Xrotation
                      JOINT LeftHandIndex3
                      {
                        OFFSET 3.662364 0.0 0.0
                        CHANNELS 3 Zrotation Yrotation Xrotation
                        JOINT LeftHandIndex4
                        {
                          OFFSET 2.329242 4e-06 -4e-06
                          CHANNELS 3 Zrotation Yrotation Xrotation
                          JOINT LeftHandIndexEnd
                          {
                            OFFSET 2.767823 1e-06 0.0
                            CHANNELS 3 Zrotation Yrotation Xrotation
                          }
                        }
                      }
                    }
                  }
                  JOINT LeftHandMiddle1
                  {
                    OFFSET 3.163612 0.945023 -0.406112
                    CHANNELS 3 Zrotation Yrotation Xrotation
                    JOINT LeftHandMiddle2
                    {
                      OFFSET 6.276789 3e-06 0.0
                      CHANNELS 3 Zrotation Yrotation Xrotation
                      JOINT LeftHandMiddle3
                      {
                        OFFSET 4.35652 -1e-06 4e-06
                        CHANNELS 3 Zrotation Yrotation Xrotation
                        JOINT LeftHandMiddle4
                        {
                          OFFSET 2.996877 0.0 8e-06
                          CHANNELS 3 Zrotation Yrotation Xrotation
                          JOINT LeftHandMiddleEnd
                          {
                            OFFSET 2.323256 3e-06 -4e-06
                            CHANNELS 3 Zrotation Yrotation Xrotation
                          }
                        }
                      }
                    }
                  }
                  JOINT LeftHandRing1
                  {
                    OFFSET 2.882606 -0.309162 0.107445
                    CHANNELS 3 Zrotation Yrotation Xrotation
                    JOINT LeftHandRing2
                    {
                      OFFSET 6.033198 0.0 4e-06
                      CHANNELS 3 Zrotation Yrotation Xrotation
                      JOINT LeftHandRing3
                      {
                        OFFSET 4.350578 3e-06 0.0
                        CHANNELS 3 Zrotation Yrotation Xrotation
                        JOINT LeftHandRing4
                        {
                          OFFSET 2.651321 2e-06 -7e-06
                          CHANNELS 3 Zrotation Yrotation Xrotation
                          JOINT LeftHandRingEnd
                          {
                            OFFSET 1.937663 1e-06 -4e-06
                            CHANNELS 3 Zrotation Yrotation Xrotation
                          }
                        }
                      }
                    }
                  }
                  JOINT LeftHandPinky1
                  {
                    OFFSET 2.865315 -1.525436 0.575687
                    CHANNELS 3 Zrotation Yrotation Xrotation
                    JOINT LeftHandPinky2
                    {
                      OFFSET 5.54936 1e-06 -8e-06
                      CHANNELS 3 Zrotation Yrotation Xrotation
                      JOINT LeftHandPinky3
                      {
                        OFFSET 3.070974 0.0 -4e-06
                        CHANNELS 3 Zrotation Yrotation Xrotation
                        JOINT LeftHandPinky4
                        {
                          OFFSET 1.549672 1e-06 0.0
                          CHANNELS 3 Zrotation Yrotation Xrotation
                          JOINT LeftHandPinkyEnd
                          {
                            OFFSET 1.952123 0.0 0.0
                            CHANNELS 3 Zrotation Yrotation Xrotation
                          }
                        }
                      }
                    }
                  }
                }
              }
            }
          }
          JOINT RightShoulder
          {
            OFFSET 23.161716 5.296122 -1.380114
            CHANNELS 3 Zrotation Yrotation Xrotation
            JOINT RightArm
            {
              OFFSET -16.027195 -2e-06 1.1e-05
              CHANNELS 3 Zrotation Yrotation Xrotation
              JOINT RightForeArm
              {
                OFFSET -28.736639 4e-06 2e-06
                CHANNELS 3 Zrotation Yrotation Xrotation
                JOINT RightHand
                {
                  OFFSET -27.133619 6e-06 0.0
                  CHANNELS 3 Zrotation Yrotation Xrotation
                  JOINT RightHandThumb1
                  {
                    OFFSET -2.274328 -3.351035 -0.83067
                    CHANNELS 3 Zrotation Yrotation Xrotation
                    JOINT RightHandThumb2
                    {
                      OFFSET -4.703594 -3e-06 2e-06
                      CHANNELS 3 Zrotation Yrotation Xrotation
                      JOINT RightHandThumb3
                      {
                        OFFSET -2.794935 -4e-06 -3e-06
                        CHANNELS 3 Zrotation Yrotation Xrotation
                        JOINT RightHandThumbEnd
                        {
                          OFFSET -3.183852 4e-06 1e-06
                          CHANNELS 3 Zrotation Yrotation Xrotation
                        }
                      }
                    }
                  }
                  JOINT RightHandIndex1
                  {
                    OFFSET -3.253496 -2.33755 -0.127667
                    CHANNELS 3 Zrotation Yrotation Xrotation
                    JOINT RightHandIndex2
                    {
                      OFFSET -6.344434 0.0 0.0
                      CHANNELS 3 Zrotation Yrotation Xrotation
                      JOINT RightHandIndex3
                      {
                        OFFSET -3.654871 0.0 -8e-06
                        CHANNELS 3 Zrotation Yrotation Xrotation
                        JOINT RightHandIndex4
                        {
                          OFFSET -2.327586 -1e-06 0.0
                          CHANNELS 3 Zrotation Yrotation Xrotation
                          JOINT RightHandIndexEnd
                          {
                            OFFSET -2.770001 3e-06 8e-06
                            CHANNELS 3 Zrotation Yrotation Xrotation
                          }
                        }
                      }
                    }
                  }
                  JOINT RightHandMiddle1
                  {
                    OFFSET -3.168223 -0.944764 0.411762
                    CHANNELS 3 Zrotation Yrotation Xrotation
                    JOINT RightHandMiddle2
                    {
                      OFFSET -6.266691 -1e-06 -4e-06
                      CHANNELS 3 Zrotation Yrotation Xrotation
                      JOINT RightHandMiddle3
                      {
                        OFFSET -4.348901 0.0 0.0
                        CHANNELS 3 Zrotation Yrotation Xrotation
                        JOINT RightHandMiddle4
                        {
                          OFFSET -3.00024 2e-06 -4e-06
                          CHANNELS 3 Zrotation Yrotation Xrotation
                          JOINT RightHandMiddleEnd
                          {
                            OFFSET -2.321477 -4e-06 -4e-06
                            CHANNELS 3 Zrotation Yrotation Xrotation
                          }
                        }
                      }
                    }
                  }
                  JOINT RightHandRing1
                  {
                    OFFSET -2.885654 0.293261 -0.119232
                    CHANNELS 3 Zrotation Yrotation Xrotation
                    JOINT RightHandRing2
                    {
                      OFFSET -6.032835 -1e-06 -4e-06
                      CHANNELS 3 Zrotation Yrotation Xrotation
                      JOINT RightHandRing3
                      {
                        OFFSET -4.33881 0.0 -4e-06
                        CHANNELS 3 Zrotation Yrotation Xrotation
                        JOINT RightHandRing4
                        {
                          OFFSET -2.654903 -4e-06 -4e-06
                          CHANNELS 3 Zrotation Yrotation Xrotation
                          JOINT RightHandRingEnd
                          {
                            OFFSET -1.935122 0.0 4e-06
                            CHANNELS 3 Zrotation Yrotation Xrotation
                          }
                        }
                      }
                    }
                  }
                  JOINT RightHandPinky1
                  {
                    OFFSET -2.866241 1.503904 -0.60527
                    CHANNELS 3 Zrotation Yrotation Xrotation
                    JOINT RightHandPinky2
                    {
                      OFFSET -5.553177 -2e-06 0.0
                      CHANNELS 3 Zrotation Yrotation Xrotation
                      JOINT RightHandPinky3
                      {
                        OFFSET -3.062664 -1e-06 -4e-06
                        CHANNELS 3 Zrotation Yrotation Xrotation
                        JOINT RightHandPinky4
                        {
                          OFFSET -1.546529 2e-06 4e-06
                          CHANNELS 3 Zrotation Yrotation Xrotation
                          JOINT RightHandPinkyEnd
                          {
                            OFFSET -1.952341 0.0 -4e-06
                            CHANNELS 3 Zrotation Yrotation Xrotation
                          }
                        }
                      }
                    }
                  }
                }
              }
            }
          }
        }
      }
    }
    JOINT LeftLeg
    {
      OFFSET -8.443107 2.567604 10.043214
      CHANNELS 3 Zrotation Yrotation Xrotation
      JOINT LeftShin
      {
        OFFSET 43.229198 1e-06 -1e-06
        CHANNELS 3 Zrotation Yrotation Xrotation
        JOINT LeftFoot
        {
          OFFSET 42.298611 1e-06 1e-06
          CHANNELS 3 Zrotation Yrotation Xrotation
          JOINT LeftToeBase
          {
            OFFSET 14.165858 1e-06 0.0
            CHANNELS 3 Zrotation Yrotation Xrotation
            JOINT LeftToeEnd
            {
              OFFSET 6.7141 -0.234461 0.0
              CHANNELS 3 Zrotation Yrotation Xrotation
            }
          }
        }
      }
    }
    JOINT RightLeg
    {
      OFFSET -8.303923 2.592729 -10.047278
      CHANNELS 3 Zrotation Yrotation Xrotation
      JOINT RightShin
      {
        OFFSET -43.369682 0.0 1e-06
        CHANNELS 3 Zrotation Yrotation Xrotation
        JOINT RightFoot
        {
          OFFSET -42.260784 4e-06 2e-06
          CHANNELS 3 Zrotation Yrotation Xrotation
          JOINT RightToeBase
          {
            OFFSET -14.222245 -2e-06 -1e-06
            CHANNELS 3 Zrotation Yrotation Xrotation
            JOINT RightToeEnd
            {
              OFFSET -6.660062 0.232574 -2e-06
              CHANNELS 3 Zrotation Yrotation Xrotation
            }
          }
        }
      }
    }
  }
}
MOTION
Frames: 5
Frame Time: 0.03333333333333333
0.0 0.0 0.0 0.0 -0.0 0.0 0.400797 99.767075 -5.055871 91.780884 5.160146 89.926636 -1.740532 -1.662731 0.099856 -11.529255 -0.942379 -0.016163 20.559752 -0.047223 -2.105252 17.769331 3.263331 2.706817 -2.502498 -0.851845 2.043447 -34.017174 -0.081986 2.858574 6e-06 -0.0 -0.0 0.007143 0.003703 -0.046333 0.114216 0.013786 -0.041791 0.098699 -0.00606 -0.045755 -118.494484 -74.388611 133.026718 44.415752 -56.624634 10.343794 23.929029 -0.035507 0.007554 -1.637672 -6.313095 7.213093 17.636625 -26.322729 52.411182 -19.466658 -14.395596 29.410381 0.0 -8.774821 1e-06 16.325886 -18.104029 5.957064 -0.609776 -1.795653 -3.889325 -4.807088 -11.046808 -2.937849 3e-06 -20.976015 -3e-06 -5.01997 -25.033556 -4.031878 7e-06 -2e-06 -0.0 -10.634533 -5.686969 -3.565586 10.573272 -17.922947 -3.113899 2e-06 -13.821209 0.0 -0.501778 -31.181498 -4.027014 -11.383658 -59.99865 7.101348 -13.982711 -7.150196 -2.87504 13.772727 -8.40149 -3.218243 0.347733 -34.211544 0.771654 -0.963029 -17.733366 2.621019 -0.0 -1e-06 0.0 -17.346416 -20.095215 -4.201779 21.757555 -1.638374 3.866426 2e-06 -6.338823 -1e-06 -1.697589 -22.591738 -6.194004 -1e-06 -4e-06 -1e-06 58.977112 -78.862495 133.497284 48.568512 -60.513531 7.893935 23.719534 -0.458953 -0.032094 -1.048274 1.714269 9.046188 22.182116 -20.375893 49.933319 -16.701817 -16.74353 28.47653 -4e-06 -12.690602 0.0 16.186718 -17.602882 2.582662 -0.105919 -1.513855 -4.275883 -5.039041 -5.61287 -2.953558 4e-06 -11.020523 -1e-06 -6.111299 -15.89533 -3.840469 -1e-06 0.0 2e-06 -10.283372 -5.680286 -4.341834 11.028296 -11.302404 -2.372636 -1.384269 -14.238579 -6.320118 -0.625436 -26.924189 -3.827601 -4.452011 -50.157978 -3.694572 -13.708524 -7.363474 -3.720938 18.14115 -14.052737 -3.242677 7e-06 -18.787266 0.0 -0.429713 -8.456039 2.555503 1e-06 -2e-06 -2e-06 -15.923534 -20.094479 -5.473585 30.41921 -7.190827 1.735928 2e-06 -8.162921 -2e-06 -1.8619 -22.861467 -6.167942 -3e-06 -2e-06 -1e-06 179.983154 -0.932611 -4.016654 13.325642 0.002157 -0.020585 -77.105141 -0.971392 -5.495141 -6.41169 1.484524 2.069649 -0.999999 -0.0 -0.0 -2.92855 -5.133346 3.080419 18.475962 0.032822 0.068854 -79.69149 1.426394 -6.474135 -5.841747 0.863471 1.70728 -1.000002 -0.0 0.0 
0.0 0.0 0.0 0.0 -0.0 0.0 0.435244 99.794014 -5.027596 91.803848 5.182892 89.926254 -1.753046 -1.666391 0.064094 -11.52574 -0.910497 0.043476 20.53207 -0.03642 -2.114886 17.806446 3.233342 2.696976 -2.475057 -0.833458 2.07415 -34.062855 -0.103405 2.830984 6e-06 -0.0 -0.0 0.001887 0.00632 -0.024438 0.136511 0.01861 -0.015876 0.121537 -0.005595 -0.027441 -118.512909 -74.359879 133.119385 44.507751 -56.643291 10.030969 23.927698 -0.131188 -0.035684 -1.622432 -6.267837 7.32457 17.636629 -26.322735 52.411194 -19.466665 -14.3956 29.410393 -1e-06 -8.774822 -0.0 16.277876 -18.042694 5.947284 -0.609775 -1.795654 -3.889325 -4.807087 -11.04681 -2.93785 6e-06 -20.976019 -4e-06 -5.019971 -25.033558 -4.031876 5e-06 -0.0 -2e-06 -10.634532 -5.686968 -3.565588 10.573275 -17.922951 -3.113902 3e-06 -13.821209 1e-06 -0.501777 -31.181498 -4.027012 -11.330901 -59.909557 7.152021 -13.982712 -7.150195 -2.875041 13.77273 -8.401493 -3.218242 0.347735 -34.211544 0.771656 -0.963028 -17.733366 2.621022 -1e-06 1e-06 0.0 -17.346416 -20.095215 -4.201779 21.757559 -1.638375 3.866425 2e-06 -6.338823 -2e-06 -1.697588 -22.591745 -6.194003 2e-06 -3e-06 -2e-06 59.109501 -78.894768 133.466965 48.389481 -60.448303 7.905068 23.576332 -0.439244 -0.054935 -1.033816 1.599043 8.943449 22.182116 -20.375891 49.933315 -16.701817 -16.74353 28.47653 -4e-06 -12.690603 -1e-06 16.17968 -17.581247 2.575416 -0.105919 -1.513855 -4.275881 -5.039041 -5.61287 -2.953556 4e-06 -11.020523 -1e-06 -6.111297 -15.89533 -3.840469 0.0 -0.0 2e-06 -10.28337 -5.680285 -4.341839 11.028294 -11.302406 -2.372635 -1.384269 -14.238579 -6.320118 -0.625438 -26.924187 -3.827601 -4.481483 -50.229649 -3.670636 -13.708527 -7.363474 -3.720938 18.14115 -14.052739 -3.242676 6e-06 -18.78727 0.0 -0.429711 -8.456042 2.555505 0.0 -0.0 -1e-06 -15.923538 -20.094481 -5.473583 30.419218 -7.190828 1.735927 2e-06 -8.162924 -1e-06 -1.8619 -22.861467 -6.167945 -0.0 -3e-06 -1e-06 -179.756958 -0.868191 -4.009175 12.887797 0.006602 0.024286 -76.933311 -1.003342 -5.555997 -6.463531 1.513559 2.076347 -0.999999 -0.0 -0.0 -2.771664 -5.177832 3.092959 18.24692 0.020896 0.087245 -79.597557 1.386492 -6.432519 -5.868211 0.838186 1.705203 -1.000002 -0.0 0.0 
0.0 0.0 0.0 0.0 -0.0 0.0 0.467818 99.802345 -4.961221 91.850555 5.221382 89.932487 -1.779936 -1.677502 0.051541 -11.548597 -0.90156 0.052672 20.580177 -0.041271 -2.106219 17.865116 3.207439 2.734511 -2.494391 -0.817115 2.032744 -34.046097 -0.133704 2.797473 5e-06 -0.0 -0.0 -0.002059 0.006811 -0.017231 0.133439 0.016907 -0.007616 0.121535 -0.003164 -0.021651 -118.496994 -74.35376 133.146378 44.506481 -56.679146 9.826755 23.963226 -0.202154 -0.068255 -1.634207 -6.261666 7.228151 17.636625 -26.322729 52.411182 -19.46666 -14.395594 29.410381 -2e-06 -8.774819 0.0 16.272844 -18.010908 5.937082 -0.609776 -1.795655 -3.889324 -4.807086 -11.046807 -2.937852 5e-06 -20.976015 -2e-06 -5.019969 -25.033554 -4.031875 7e-06 -0.0 -2e-06 -10.634531 -5.686969 -3.565585 10.573272 -17.922951 -3.113901 3e-06 -13.821206 1e-06 -0.501781 -31.181498 -4.027011 -11.334367 -59.813839 7.177769 -13.982712 -7.150196 -2.875039 13.772729 -8.401492 -3.21824 0.347736 -34.211544 0.771657 -0.963031 -17.73337 2.621021 -1e-06 -1e-06 0.0 -17.346413 -20.095211 -4.201779 21.757555 -1.638375 3.866425 1e-06 -6.338822 -2e-06 -1.697588 -22.591743 -6.194002 1e-06 -2e-06 -2e-06 59.060776 -78.935326 133.590134 48.15115 -60.379658 7.896082 23.428469 -0.45838 -0.074692 -1.039801 1.539786 8.887574 22.182112 -20.375891 49.933319 -16.701815 -16.743532 28.47653 -3e-06 -12.690601 -1e-06 16.1863 -17.540249 2.57447 -0.105918 -1.513856 -4.275879 -5.039041 -5.612871 -2.953558 3e-06 -11.020525 -3e-06 -6.1113 -15.895332 -3.840471 -0.0 1e-06 1e-06 -10.283371 -5.680288 -4.341839 11.028295 -11.302405 -2.372633 -1.384268 -14.23858 -6.320122 -0.625439 -26.924187 -3.827602 -4.477252 -50.243797 -3.673082 -13.708527 -7.363478 -3.720937 18.141153 -14.052739 -3.242677 7e-06 -18.787271 -1e-06 -0.429713 -8.456043 2.555506 -1e-06 0.0 -0.0 -15.923536 -20.094482 -5.473586 30.41921 -7.190825 1.735923 2e-06 -8.162925 -1e-06 -1.8619 -22.861467 -6.167943 -2e-06 -3e-06 -1e-06 -179.514633 -0.714967 -4.011342 12.608697 0.009209 0.051037 -76.899635 -1.031798 -5.504846 -6.446584 1.526958 2.082599 -0.999999 -0.0 -0.0 -2.655809 -5.247571 3.115247 18.190163 0.01809 0.094183 -79.616173 1.301344 -6.44585 -5.848501 0.820736 1.702116 -1.000001 0.0 0.0 
0.0 0.0 0.0 0.0 -0.0 0.0 0.451391 99.804916 -4.906528 91.89003 5.26699 89.930695 -1.809269 -1.683006 0.05497 -11.577351 -0.903606 0.039659 20.640699 -0.047371 -2.077251 17.949184 3.169104 2.765533 -2.526814 -0.805675 1.982029 -34.013454 -0.151917 2.775341 5e-06 -0.0 -0.0 -0.004753 0.003677 -0.023419 0.119397 0.010858 -0.014301 0.110658 -0.003711 -0.028065 -118.540474 -74.350739 133.21315 44.455013 -56.706604 9.761433 24.0109 -0.242322 -0.083526 -1.633081 -6.259557 7.101301 17.636633 -26.322725 52.411179 -19.466658 -14.395596 29.410381 1e-06 -8.774821 0.0 16.275282 -17.973612 5.918776 -0.609777 -1.795655 -3.889327 -4.80709 -11.046813 -2.937849 1e-06 -20.976019 -4e-06 -5.019974 -25.033562 -4.03188 5e-06 -1e-06 -0.0 -10.634534 -5.686972 -3.565589 10.573272 -17.922951 -3.113902 1e-06 -13.821209 2e-06 -0.501778 -31.181505 -4.027018 -11.34302 -59.746471 7.178814 -13.982714 -7.150199 -2.875042 13.772727 -8.401491 -3.218242 0.347734 -34.211555 0.771652 -0.963026 -17.73337 2.621018 -1e-06 0.0 0.0 -17.346422 -20.095219 -4.201776 21.757559 -1.638372 3.866426 1e-06 -6.338824 -2e-06 -1.69759 -22.591747 -6.194006 2e-06 -5e-06 -1e-06 58.853966 -78.951157 133.848267 47.86713 -60.297916 8.053487 23.296482 -0.460715 -0.080475 -1.064783 1.470033 8.791654 22.182116 -20.375889 49.933308 -16.701813 -16.74353 28.47653 -3e-06 -12.690601 -3e-06 16.174559 -17.500957 2.588826 -0.105918 -1.513856 -4.275882 -5.039041 -5.612871 -2.953557 3e-06 -11.020526 -2e-06 -6.1113 -15.895334 -3.840468 1e-06 0.0 0.0 -10.283369 -5.680288 -4.341838 11.028294 -11.302404 -2.372635 -1.384269 -14.238581 -6.320118 -0.625437 -26.924194 -3.827599 -4.480742 -50.211517 -3.663505 -13.708525 -7.363477 -3.720936 18.14115 -14.052739 -3.242678 6e-06 -18.787268 -0.0 -0.429713 -8.456041 2.555501 1e-06 -2e-06 1e-06 -15.923532 -20.094482 -5.473584 30.41921 -7.190827 1.735926 3e-06 -8.162925 -1e-06 -1.861902 -22.861467 -6.167944 -1e-06 -3e-06 -0.0 -179.344604 -0.675777 -4.027181 12.391234 0.009454 0.06816 -76.825203 -1.024648 -5.524148 -6.417307 1.525161 2.084992 -0.999998 0.0 0.0 -2.573624 -5.275753 3.148646 18.19911 0.019638 0.081165 -79.657173 1.209537 -6.440694 -5.816974 0.8001 1.697695 -1.000001 -0.0 0.0 
0.0 0.0 0.0 0.0 -0.0 0.0 0.41414 99.801605 -4.87826 91.916618 5.307759 89.939613 -1.847383 -1.678745 0.070274 -11.603418 -0.909794 0.024382 20.705204 -0.056176 -2.04938 17.998169 3.134124 2.77933 -2.543769 -0.789221 1.951015 -33.994587 -0.173161 2.753995 6e-06 -0.0 -0.0 -0.001454 0.003468 -0.02208 0.11605 0.010747 -0.012347 0.108961 -0.004276 -0.027791 -118.624107 -74.338028 133.310669 44.439575 -56.693687 9.810359 24.025122 -0.25499 -0.084764 -1.607851 -6.25183 7.013318 17.636625 -26.322723 52.411182 -19.46666 -14.395596 29.410381 1e-06 -8.774821 -1e-06 16.250952 -17.931339 5.922759 -0.609776 -1.795654 -3.889324 -4.807088 -11.04681 -2.937849 3e-06 -20.976015 -5e-06 -5.019971 -25.033556 -4.031879 5e-06 -1e-06 -0.0 -10.634533 -5.686971 -3.565586 10.573274 -17.922951 -3.113905 1e-06 -13.821209 1e-06 -0.501777 -31.181498 -4.027017 -11.355606 -59.688011 7.1896 -13.982713 -7.150198 -2.87504 13.772729 -8.401491 -3.218242 0.347732 -34.211552 0.77165 -0.963026 -17.73337 2.621015 -1e-06 2e-06 1e-06 -17.346416 -20.095215 -4.201779 21.757557 -1.638373 3.866425 2e-06 -6.338824 -2e-06 -1.697593 -22.591743 -6.194004 2e-06 -3e-06 -3e-06 58.688591 -78.9347 134.039261 47.650082 -60.238266 8.333825 23.160099 -0.434115 -0.076901 -1.080307 1.414066 8.685397 22.182114 -20.375887 49.933308 -16.701809 -16.743528 28.476522 -2e-06 -12.690601 -3e-06 16.150486 -17.483715 2.616121 -0.10592 -1.513856 -4.275881 -5.039041 -5.61287 -2.953558 3e-06 -11.020523 -2e-06 -6.1113 -15.89533 -3.840471 0.0 0.0 1e-06 -10.283367 -5.680286 -4.341839 11.028293 -11.302405 -2.372632 -1.38427 -14.238578 -6.320118 -0.625437 -26.924191 -3.827602 -4.502575 -50.174 -3.641432 -13.708523 -7.363474 -3.720941 18.141148 -14.052738 -3.242675 7e-06 -18.787268 -0.0 -0.429711 -8.456041 2.555502 1e-06 -2e-06 -0.0 -15.923536 -20.094482 -5.473582 30.41921 -7.190825 1.735925 1e-06 -8.162922 -0.0 -1.861901 -22.861467 -6.167944 -3e-06 -4e-06 -1e-06 -179.233627 -0.737466 -4.019131 12.299406 0.005728 0.076696 -76.784317 -1.001468 -5.617244 -6.381986 1.521761 2.085165 -0.999999 -0.0 -0.0 -2.535797 -5.276421 3.161938 18.255957 0.020386 0.066551 -79.705505 1.139958 -6.445464 -5.782564 0.787441 1.695738 -1.000002 0.0 -0.0 
